<svg xmlns="http://www.w3.org/2000/svg" width="574.821" height="707.534" viewBox="0 0 574.821 707.534">
  <defs>
    <style>
      .cls-1 {
        fill: #1a406d;
      }
    </style>
  </defs>
  <path id="Path_297198" data-name="Path 297198" class="cls-1" d="M631.123,293.421H609.135V208.612C609.135,107.315,536.108,28,431.664,28s-175.9,80.883-175.9,180.612v84.027H233.776c-48.685,0-87.949,39.264-88.737,88.737V646.8c0,48.685,39.264,87.949,88.737,88.737H631.123c48.685,0,87.949-39.263,88.737-88.737V381.362c0-48.685-40.052-87.949-88.737-87.949Zm-331.384,0V208.612c0-75.389,51.829-136.638,131.923-136.638,79.311,0,133.495,59.679,133.495,136.638v84.027h0l-265.421-.005v.789ZM675.1,646.793a43.9,43.9,0,0,1-43.974,43.974H233.777A43.9,43.9,0,0,1,189.8,646.793V381.372A43.9,43.9,0,0,1,233.777,337.4H631.124A43.9,43.9,0,0,1,675.1,381.372ZM476.424,470.107a44.206,44.206,0,0,1-21.988,38.48h0v72.245a21.988,21.988,0,1,1-43.975,0V508.587h0a44.226,44.226,0,0,1,21.986-82.453c24.342-.789,43.974,18.844,43.974,43.974Z" transform="translate(-145.039 -28)"/>
</svg>
