<svg xmlns="http://www.w3.org/2000/svg" width="702.92" height="607.566" viewBox="0 0 702.92 607.566">
  <defs>
    <style>
      .cls-1 {
        fill: #1a406d;
      }

      .cls-2 {
        fill: #f8dcb7;
      }
    </style>
  </defs>
  <g id="Group_115249" data-name="Group 115249" transform="translate(-188.54 -236.217)">
    <path id="Path_297199" data-name="Path 297199" class="cls-1" d="M277.8,196.686a191.646,191.646,0,0,1,211.386,0c8.131-14.045,19.958-25.872,32.523-35.477A240.005,240.005,0,0,0,383.494,117.6a235.312,235.312,0,0,0-138.217,44.35c13.3,8.868,24.391,21.432,32.523,34.734Z" transform="translate(156.87 208.052)"/>
    <path id="Path_297200" data-name="Path 297200" class="cls-1" d="M216.043,304.773c0-8.131.737-16.261,1.48-23.655H169.482c-.737,8.131-1.48,15.524-1.48,23.655,0,79.09,39.174,150.043,99.042,193.652,6.651-14.781,15.524-28.088,27.347-38.436-47.3-35.472-78.347-91.65-78.347-155.217Z" transform="translate(132.152 260.357)"/>
    <path id="Path_297201" data-name="Path 297201" class="cls-1" d="M513.289,281.12c.737,8.131,1.48,15.524,1.48,23.655a190.029,190.029,0,0,1-79.09,154.478c11.827,11.085,21.432,23.655,27.347,39.174,59.868-43.607,99.042-113.823,99.042-193.652,0-8.131-.737-16.261-1.48-23.655Z" transform="translate(217.775 260.358)"/>
    <path id="Path_297202" data-name="Path 297202" class="cls-2" d="M434.48,375.44a68,68,0,1,1-68-68,68,68,0,0,1,68,68" transform="translate(173.889 268.777)"/>
    <path id="Path_297203" data-name="Path 297203" class="cls-1" d="M437.1,425.04a106.224,106.224,0,0,1-119.737,0,77.56,77.56,0,0,0-52.481,73.175V530a7.407,7.407,0,0,0,7.393,7.393H482.186A7.407,7.407,0,0,0,489.58,530v-31.78c0-34-22.175-62.086-52.481-73.175Z" transform="translate(163.141 306.394)"/>
    <path id="Path_297204" data-name="Path 297204" class="cls-2" d="M253.6,117.84a68,68,0,1,1-68-68,68,68,0,0,1,68,68" transform="translate(116.029 186.377)"/>
    <path id="Path_297205" data-name="Path 297205" class="cls-1" d="M308.136,272.4v-31.78a77.557,77.557,0,0,0-52.481-73.175,106.224,106.224,0,0,1-119.737,0,77.56,77.56,0,0,0-52.481,73.175V272.4a7.407,7.407,0,0,0,7.393,7.393H300.744c4.439-.742,7.393-3.7,7.393-7.393Z" transform="translate(105.102 223.995)"/>
    <path id="Path_297206" data-name="Path 297206" class="cls-2" d="M615.36,117.84a68,68,0,1,1-68-68,68,68,0,0,1,68,68" transform="translate(231.748 186.377)"/>
    <path id="Path_297207" data-name="Path 297207" class="cls-1" d="M617.977,167.44a106.224,106.224,0,0,1-119.737,0,77.56,77.56,0,0,0-52.481,73.175V272.4a7.407,7.407,0,0,0,7.393,7.393H663.066a7.407,7.407,0,0,0,7.393-7.393v-31.78a77.557,77.557,0,0,0-52.481-73.175Z" transform="translate(221 223.994)"/>
  </g>
</svg>
