<svg xmlns="http://www.w3.org/2000/svg" width="732.189" height="732.189" viewBox="0 0 732.189 732.189">
  <defs>
    <style>
      .cls-1 {
        fill: #1a406d;
      }
    </style>
  </defs>
  <g id="noun-world-1937836" transform="translate(-109.04 -39.04)">
    <path id="Path_297182" data-name="Path 297182" class="cls-1" d="M539.786,223.166c-11.315,6.3-8.077,6.143-11.315,6.3-5.966.268-27.676,2.517-23.9,0,3.763-2.528,6.528-6.053,7.228-8.813.244-.914.631-3.062,0-3.769-3.08-3.531-14-1.389-18.539-2.51-3.583-.9-10.219-4.4-13.857-5.045a47.791,47.791,0,0,0-12.577,0c-8.957,1.632-30.191,11.319-26.41,25.163s7.139,19.287,13.05,21.389c3.154,1.121,10.263-1.27,13.366,0,3.288,1.359,7.395,7.692,10.06,10.066,1.506,1.335,4.385,4.362,6.3,5.032,1.174.421,4.148-.878,5.028,0,.9.9-.88,4.148,0,5.044,2.674,2.659,11.316,0,15.1,0H544.83c3.154,0,10.367,2.214,12.6,0,1.779-1.78,0-7.56,0-10.065V259.67c0-3.074-2.992-11.578,0-12.285,1.282-.3,2.183.849,6.278-4.7,8.814-11.946,9.568-8.3,8.814-11.946-.475-2.357,7.068-2.125,8.812-3.78,2.274-2.143,5.028-10.049,0-12.565-5.045-2.528-7.541-3.78-10.075-5.044-6.592-3.288-27.676-13.834-27.676-10.059s-1.245,10.059-1.245,13.834c-.014,3.751,8.8,3.744-2.547,10.041Z" transform="translate(171.859 82.802)"/>
    <path id="Path_297183" data-name="Path 297183" class="cls-1" d="M475.134,771.229c201.856,0,366.095-164.223,366.095-366.095S676.991,39.04,475.134,39.04,109.04,203.263,109.04,405.134,273.278,771.229,475.134,771.229ZM826.127,405.134c0,7.982-.369,15.863-.9,23.7-4.439.528-9.306,2.41-11.686,2.885-6.3,1.264,0,0-3.78,0-3.763,0-5.525,4.012-7.543,5.045-1.983.973-6.683.576-8.8,0-2.38-.665-6.314-3.781-6.314-7.561s-10.059-5.033-18.873-12.576c-8.8-7.549-4.7-9.448-3.763-12.581.457-1.531-.7-4.754-1.263-6.25-1.579-4.386-4.221-15.728-8.814-16.392-1.745-.261-3.887,3.674-5.027,5.045-2.427,2.9-8.8,12.576-10.077,11.353-1.265-1.246-1.692,14.44,0,18.843,2.184,5.632,9.656,16.243,15.1,18.873,2.623,1.264,0,0,7.561,8.8,7.543,8.814,5.775,10.22,8.813,12.576,3.217,2.517,13.562-1.745,16.339,1.264,2.57,2.778,1.158,11.508,0,15.1-1.306,4.083-6.279,8.813-10.059,13.834-3.781,5.045-5.858,4.517-7.561,6.3-4.9,5.24-6.279,23.9-7.543,27.674-1.282,3.781-8.8,35.235-10.059,39s-3.727,6.653-5.045,8.8c-5.542,8.985-13.727,28.54-18.872,37.74-5.787,10.35-22.648,36.488-25.159,40.256s-6.018,6.778-8.813,7.549c-5.454,1.507-17.562,2.481-22.647,0-5.027-2.445-11.721-12.422-13.816-17.615-4.623-11.419-3.1-36.878-5.045-49.064-1.175-7.3-5.318-21.55-6.279-28.873-1.193-9.081-1.282-28.938-2.516-36.488-1.264-7.549-.825-5.84,0-7.549,2.273-4.819-11.335-13.846-15.116-15.1-3.763-1.252-3.763-5.045-8.8-10.065-5.027-5.045-9.484-1.834-12.576-1.264-3.431.647-10.351-1.092-13.834-1.264-5.353-.244-16.57,2.285-21.395,0-8.481-3.994-18.594-21.181-23.895-28.926a84.666,84.666,0,0,1-7.561-15.1c-1.247-3.781-3.763-14.149-5.045-18.873-1.466-5.371-6.789-15.852-6.278-21.395.593-6.6,7.543-15.1,13.834-22.641,6.261-7.549,9.217-7.846,12.576-10.066,5.388-3.537,5.044-5.032,18.872-17.609s0,0,0-6.285-4.042-8.855-2.516-11.329c1.323-2.16,0,0-5.045-8.8-5.027-8.8-4.291-5.347-6.279-6.285-5.875-2.766,8.8-20.125,10.06-23.9,1.282-3.769,6.279,0,13.834-3.769s5.668-.225,7.561,0c3.852.475,3.306-11.229,3.763-15.1a15.62,15.62,0,0,0,0-5.045c-.825-2.582-3.87-7.567-6.279-8.8-2.534-1.3-7.543,0-11.318-1.264-3.78-1.246-8.814-2.516-12.594-5.033s-6.54-8.618-5.026-11.33c2.884-5.151,17.615-7.549,21.395-10.059,3.763-2.51,0-7.549,0-11.318s14.184-4.878,18.855-3.781c3.43.807,10.736,3.294,12.594,6.279,1.49,2.415-.647,8.57,0,11.329.647,2.742,2.516,8.778,5.009,10.066,1.692.878,5.65-1.086,7.561-1.264,1.341-.107,0,0,3.78-3.769s3.447-6.831,5.05-8.8c1.306-1.65,5.49-3.288,7.543-3.781,3.674-.866,11.318-.178,15.1,0,3.484.16,10.35,1.448,13.816,1.264a21.066,21.066,0,0,0,10.077-3.769c3.781-2.51,16.357-8.8,20.132-12.582s3.762-13.834,2.516-17.615c-1.264-3.769.142-3.781,0-5.033-.35-2.943-7.14-5.822-10.077-6.285-2.57-.4-7.852,1.121-10.06,2.516-3.78,2.38-8.777,10.154-11.317,13.828-1.449,2.089-2.991,7.318-5.045,8.8-1.3.937-4.665,1.1-6.279,1.264a156.39,156.39,0,0,1-20.149,0c-4.421-.315-14.677.86-17.6-2.5-.593-.706,0-1.959,0-3.709V204c0-1.757-.386-2.855,0-3.7,2.077-4.451,12.421-8.463,15.1-12.582,2.481-3.834,2.2-14,5.045-17.609,6.9-8.89,30.155-15.657,38.992-22.647,3.674-2.9,11.21-7.935,15.62-13.021,78.036,64.428,127.83,161.853,127.83,270.7ZM557.041,63.881a6.162,6.162,0,0,1-.143,1.81c-1.632,5.573-8.8,13.834-15.1,17.609s-.333,10.4,0,13.846c.563,6.048-5.336,17.662-8.8,22.641-4.481,6.386-20.15,17.615-22.647,21.4S502.1,149.93,499.04,152.5c-4.3,3.6-13.858,11.33-17.615,13.834-3.78,2.516-11.335,8.8-20.605,26.423S448.7,207.2,444.939,204.086c-5.39-4.463-24.808-9.709-22.647-16.363.973-3.056,0,0-10.059-7.97s-10.753-21.305-8.813-28.518c.736-2.724,4.077-7.413,5.044-10.059,2.256-6.089,1.193-21.181,6.3-25.175,2.884-2.273,0,0-5.045-13.834s-17.264-8.973-21.395-13.834c-1.246-1.448.475-5.8,1.282-7.543,1-2.238,4.57-5.787,6.279-7.561,3.116-3.2,9.816-8.884,12.891-12.736a348.806,348.806,0,0,1,148.27,3.389ZM257.811,129.8H268.8c18.873,0,11.335,0,21.377-1.264,10.059-1.27,10.428-2.748,13.858-3.78,4.237-1.282,0,0,17.615-1.264s0,0,7.015-1.264,8.078-2.517,11.858,0c3.763,2.516,11.454-1.051,15.1,0,5.353,1.561,12.576,12.576,15.1,16.357s12.558,15.1,16.357,22.641c3.78,7.549,0,0-8.813,6.285-8.8,6.3-5.045,5.045-8.814,5.045s-10.7.3-13.816-1.264c-2.73-1.359-5.8-7.246-8.428-8.8-4.2-2.51-8.516-7.478-18.522-6.285-2.13.243-5.317,3.691-7.015,5.032-2.623,2.071-7.508,6.683-10.077,8.8-3.063,2.517-9.935,6.754-12.576,9.71-2.73,3.062-6.3,10.428-10.06,12.932-3.78,2.51,1.264,13,3.763,16.363,1.852,2.481,5.893,7.727,8.813,8.8,4.463,1.65,15.081-1.252,18.855-2.516a61.924,61.924,0,0,0,12.593-5.045c7.561-3.769,0,0,5.045-3.769,5.027-3.769,6.51-5.537,9.181-6.285,5.068-1.395,16.149-2,21.009,0,3.288,1.353,7.78,7.341,10.059,10.059,5.027,5.964,8.814,12.594,21.377,22.647s13.858,18.873,16.374,23.911-1.264,15.1-3.781,18.855a35.171,35.171,0,0,1-11.317,10.077c-12.386,5.911-31.473,8.8-53.716,11.318-22.226,2.516-.385,8.8,0,11.33.4,2.51-20.516,17.627-31.84,26.41-11.318,8.8,0,0-3.781,1.27s-7.542,7.543-11.317,11.318-3.781,17.615-7.561,20.131c-3.763,2.517-17.615,6.285-21.395,6.285H251.2c-3.78,0-6.772-.849-8.813,0-2.867,1.2-7.615,5.941-8.813,8.8a10.7,10.7,0,0,0,0,6.285c1.745,3.626,9.638,7.335,12.594,10.06,7.229,6.635,23.911,25.175,26.429,28.938,2.516,3.78,9.448,17.36,15.1,20.131s18.854,0,25.158,0c3.947,0,11.893-.475,15.834,0,7.395.878,20.66,5.027,29.384,5.027s12.594,4.184,15.164,7.561c3.27,4.314,5.045,7.549,17.632,12.576,12.558,5.045,14.1,8.255,18.593,11.33,6.333,4.326,24.154,10.065,27.935,12.576s8.814,22.641,15.1,32.719,11.318,18.873,6.3,30.19c-5.045,11.318,3.762,15.1,0,18.873-3.78,3.763-3.78,7.549-13.834,22.641-10.077,15.1-12.594,26.422-16.357,27.674-3.78,1.252-30.417,19-26.429,27.68,2.237,4.861,0,0-16.338,13.834-16.357,13.834-13.858,12.576-21.395,16.357-7.561,3.769-6.736,17.734-6.3,23.911.4,5.875-.938,16.641-.089,24.963-4.825-1.709-9.6-3.549-14.35-5.472.106-6.665-1.122-14.76-1.923-19.49-1.247-7.561-15.1-64.167-15.1-70.458s-9.235-10.861-11.318-15.11c-2.623-5.365,0-17.923,0-23.894,0-3.152,1.359-9.751,0-12.582-.878-1.816-4.842-3.644-6.3-5.044-6.106-5.787-17.839-18.054-22.338-25.159-1.834-2.884-3.252-9.87-5.335-12.582-2.166-2.837-9.9-5.5-11.318-8.8-2-4.641,1.247-12.576,1.247-20.125s3.78-8.8,11.7-18.873.9-6.285-.367-10.059c-1.282-3.781,1.264-6.3,0-10.066-1.282-3.78-9.164-12.493-12.577-16.357-2.219-2.5-6.243-7.935-8.8-10.065-6.19-5.14-21.027-11.864-27.709-16.345C228,431.709,217.391,423.43,212.2,419.12c-7.507-6.285-22.339-19.175-28.926-26.429-2.113-2.326-5.335-7.828-7.543-10.059-3.638-3.674-13.674-8.167-16.374-12.582-4.754-7.929-5.49-27.264-6.279-36.476-.754-8.778.825-26.458,0-35.235-.593-6.422.843-21.027-1.341-29.661A352.691,352.691,0,0,1,257.813,129.8Z" transform="translate(0 0)"/>
  </g>
</svg>
